<svg height="480pt" viewBox="0 0 480.23973 480" width="480pt" xmlns="http://www.w3.org/2000/svg" xmlns:xlink="http://www.w3.org/1999/xlink"><linearGradient id="a"><stop offset="0" stop-color="#e93e3a"/><stop offset=".358" stop-color="#ed683c"/><stop offset=".702" stop-color="#f3903f"/><stop offset="1" stop-color="#fdc70c"/></linearGradient><linearGradient id="b" gradientUnits="userSpaceOnUse" x1="240.183867" x2="240.183867" xlink:href="#a" y1="467.255865" y2="-33.408135"/><linearGradient id="c" gradientUnits="userSpaceOnUse" x1="240.119867" x2="240.119867" xlink:href="#a" y1="467.255865" y2="-33.408135"/><path d="m359.59375 121.945312c-31.273438-31.773437-73.957031-49.714843-118.539062-49.824218h-.886719c-92.785157-.234375-168.191407 74.789062-168.425781 167.574218-.234376 92.785157 74.792968 168.191407 167.578124 168.425782h.902344c67.785156-.019532 128.917969-40.765625 155.011719-103.328125 26.09375-62.558594 12.039063-134.671875-35.640625-182.847657zm-12.488281 226.175782c-28.382813 28.269531-66.839844 44.097656-106.898438 44h-.800781c-83.945312-.222656-151.820312-68.453125-151.597656-152.402344.21875-83.945312 68.453125-151.820312 152.398437-151.597656h.800781c61.457032.347656 116.65625 37.667968 139.875 94.566406 23.21875 56.902344 9.886719 122.1875-33.777343 165.433594zm0 0" fill="url(#b)"/><g fill="url(#c)"><path d="m184.625 234.769531c.109375.253907.230469.507813.367188.75.308593.660157.707031 1.273438 1.183593 1.824219.121094.128906.160157.304688.289063.433594l48 48c3.121094 3.121094 8.1875 3.121094 11.3125 0l48-48c.125-.128906.167968-.304688.285156-.433594.480469-.550781.878906-1.164062 1.183594-1.824219.136718-.242187.261718-.496093.371094-.75.351562-.941406.519531-1.941406.503906-2.945312v-.0625c0-.128907-.082032-.242188-.097656-.371094-.042969-.707031-.175782-1.40625-.398438-2.078125l-48-128c-1.167969-3.128906-4.15625-5.207031-7.496094-5.207031s-6.332031 2.078125-7.496094 5.207031l-48 128c-.222656.671875-.359374 1.371094-.402343 2.078125 0 .128906-.085938.242187-.09375.371094v.0625c-.023438 1.003906.140625 2 .488281 2.945312zm55.496094 34.039063-36.152344-36.152344 36.152344-30.136719 36.152344 30.121094zm0-141.90625 29.886718 79.714844-24.800781-20.640626c-2.964843-2.472656-7.273437-2.472656-10.238281 0l-24.800781 20.640626zm0 0"/><path d="m290.464844 250.464844-50.34375 50.34375-50.34375-50.34375c-2.746094-2.742188-7.066406-3.117188-10.246094-.890625-3.175781 2.226562-4.296875 6.410156-2.660156 9.929687l56 120c1.316406 2.816406 4.140625 4.613282 7.25 4.613282 3.105468 0 5.933594-1.796876 7.246094-4.613282l56-120c1.640624-3.519531.519531-7.703125-2.660157-9.929687-3.179687-2.226563-7.496093-1.851563-10.242187.890625zm-50.34375 106.734375-29.546875-63.3125 23.890625 23.890625c3.121094 3.121094 8.1875 3.121094 11.3125 0l23.886718-23.890625zm0 0"/><path d="m448.121094 368.121094c-14.546875.054687-27.226563 9.914062-30.863282 24h-9.136718c-4.417969 0-8-3.582032-8-8v-37.707032c42.746094-64.417968 42.746094-148.171874 0-212.589843v-37.703125c0-4.417969 3.582031-8 8-8h9.136718c4.027344 15.601562 19.027344 25.773437 35.015626 23.742187 15.984374-2.027343 27.964843-15.628906 27.964843-31.742187 0-16.117188-11.980469-29.714844-27.964843-31.746094-15.988282-2.03125-30.988282 8.140625-35.015626 23.746094h-9.136718c-13.257813 0-24 10.742187-24 24v16.964844c-2.402344-2.734376-4.890625-5.421876-7.472656-8-18.347657-18.597657-40.308594-33.246094-64.527344-43.039063v-13.925781c0-4.417969 3.582031-8 8-8h17.136718c4.027344 15.601562 19.027344 25.773437 35.015626 23.742187 15.984374-2.027343 27.964843-15.628906 27.964843-31.742187 0-16.117188-11.980469-29.714844-27.964843-31.746094-15.988282-2.03125-30.988282 8.140625-35.015626 23.746094h-17.136718c-13.257813 0-24 10.742187-24 24v8.253906c-17.820313-5.386719-36.328125-8.167969-54.945313-8.253906h-1.054687c-16.191406-.003906-32.320313 2.035156-48 6.0625v-6.0625c0-13.257813-10.746094-24-24-24h-25.136719c-4.027344-15.605469-19.03125-25.777344-35.015625-23.746094-15.988281 2.03125-27.96875 15.628906-27.96875 31.746094 0 16.113281 11.980469 29.714844 27.96875 31.742187 15.984375 2.03125 30.988281-8.140625 35.015625-23.742187h25.136719c4.417968 0 8 3.582031 8 8v10.902344c-26.675782 9.445312-50.925782 24.691406-71 44.632812-3.136719 3.105469-6.105469 6.328125-9 9.601562v-17.136718c0-13.257813-10.746094-24-24-24h-9.136719c-4.027344-15.605469-19.03125-25.777344-35.015625-23.746094-15.988281 2.03125-27.96875 15.628906-27.96875 31.746094 0 16.113281 11.980469 29.714844 27.96875 31.742187 15.984375 2.03125 30.988281-8.140625 35.015625-23.742187h9.136719c4.417968 0 8 3.582031 8 8v37.902344c-42.585938 64.328124-42.585938 147.886718 0 212.214843v37.882813c0 4.417968-3.582032 8-8 8h-9.136719c-4.027344-15.605469-19.03125-25.777344-35.015625-23.746094-15.988281 2.03125-27.96875 15.628906-27.96875 31.746094 0 16.113281 11.980469 29.714844 27.96875 31.742187 15.984375 2.03125 30.988281-8.140625 35.015625-23.742187h9.136719c13.253906 0 24-10.746094 24-24v-17.113282c2.453125 2.785157 4.964844 5.519532 7.597656 8.175782 20.339844 20.617187 45.09375 36.347656 72.402344 46v10.9375c0 4.417968-3.582032 8-8 8h-25.136719c-4.027344-15.605469-19.03125-25.777344-35.015625-23.746094-15.988281 2.03125-27.96875 15.628906-27.96875 31.746094 0 16.113281 11.980469 29.714844 27.96875 31.742187 15.984375 2.03125 30.988281-8.140625 35.015625-23.742187h25.136719c13.253906 0 24-10.746094 24-24v-6.042969c15.378906 3.9375 31.1875 5.964844 47.0625 6.042969h1.03125c18.941406.015625 37.777344-2.761719 55.90625-8.242188v8.242188c0 13.253906 10.742187 24 24 24h17.136718c4.027344 15.601562 19.027344 25.773437 35.015626 23.742187 15.984374-2.027343 27.964843-15.628906 27.964843-31.742187 0-16.117188-11.980469-29.714844-27.964843-31.746094-15.988282-2.03125-30.988282 8.140625-35.015626 23.746094h-17.136718c-4.417969 0-8-3.582032-8-8v-13.90625c23.59375-9.539063 45.054687-23.679688 63.125-41.597656 3.089844-3.058594 6.019531-6.234376 8.875-9.464844v16.96875c0 13.253906 10.742187 24 24 24h9.136718c4.183594 16.058594 19.972657 26.238281 36.328126 23.421875 16.355468-2.8125 27.832031-17.6875 26.40625-34.222657-1.425782-16.535156-15.273438-29.226562-31.871094-29.199218zm0-304c8.835937 0 16 7.164062 16 16 0 8.835937-7.164063 16-16 16-8.835938 0-16-7.164063-16-16 0-8.835938 7.164062-16 16-16zm-80-48c8.835937 0 16 7.164062 16 16 0 8.835937-7.164063 16-16 16-8.835938 0-16-7.164063-16-16 0-8.835938 7.164062-16 16-16zm-256 32c-8.835938 0-16-7.164063-16-16 0-8.835938 7.164062-16 16-16 8.835937 0 16 7.164062 16 16 0 8.835937-7.164063 16-16 16zm-80 48c-8.835938 0-16-7.164063-16-16 0-8.835938 7.164062-16 16-16 8.835937 0 16 7.164062 16 16 0 8.835937-7.164063 16-16 16zm0 320c-8.835938 0-16-7.164063-16-16 0-8.835938 7.164062-16 16-16 8.835937 0 16 7.164062 16 16 0 8.835937-7.164063 16-16 16zm80 48c-8.835938 0-16-7.164063-16-16 0-8.835938 7.164062-16 16-16 8.835937 0 16 7.164062 16 16 0 8.835937-7.164063 16-16 16zm256-32c8.835937 0 16 7.164062 16 16 0 8.835937-7.164063 16-16 16-8.835938 0-16-7.164063-16-16 0-8.835938 7.164062-16 16-16zm-4.136719-66.90625c-56.535156 55.949218-143.566406 67.027344-212.3125 27.03125-68.75-40-102.125-121.136719-81.425781-197.933594 20.703125-76.796875 90.335937-130.164062 169.875-130.191406h.941406c71.191406.355468 135.160156 43.5625 162.066406 109.476562 26.90625 65.910156 11.457032 141.539063-39.144531 191.617188zm84.136719 50.90625c-8.835938 0-16-7.164063-16-16 0-8.835938 7.164062-16 16-16 8.835937 0 16 7.164062 16 16 0 8.835937-7.164063 16-16 16zm0 0"/></g></svg>