<svg height="480pt" viewBox="0 0 480.11134 480" width="480pt" xmlns="http://www.w3.org/2000/svg"><g fill="#ffde55"><path d="m472.121094 80.054688c0 13.253906-10.746094 24-24 24-13.257813 0-24-10.746094-24-24 0-13.253907 10.742187-24 24-24 13.253906 0 24 10.746093 24 24zm0 0"/><path d="m392.121094 32.054688c0 13.253906-10.746094 24-24 24-13.257813 0-24-10.746094-24-24 0-13.253907 10.742187-24 24-24 13.253906 0 24 10.746093 24 24zm0 0"/><path d="m56.121094 80.054688c0 13.253906-10.746094 24-24 24-13.257813 0-24-10.746094-24-24 0-13.253907 10.742187-24 24-24 13.253906 0 24 10.746093 24 24zm0 0"/><path d="m136.121094 32.054688c0 13.253906-10.746094 24-24 24-13.257813 0-24-10.746094-24-24 0-13.253907 10.742187-24 24-24 13.253906 0 24 10.746093 24 24zm0 0"/><path d="m472.121094 400.054688c0 13.253906-10.746094 24-24 24-13.257813 0-24-10.746094-24-24 0-13.253907 10.742187-24 24-24 13.253906 0 24 10.746093 24 24zm0 0"/><path d="m392.121094 448.054688c0 13.253906-10.746094 24-24 24-13.257813 0-24-10.746094-24-24 0-13.253907 10.742187-24 24-24 13.253906 0 24 10.746093 24 24zm0 0"/><path d="m56.121094 400.054688c0 13.253906-10.746094 24-24 24-13.257813 0-24-10.746094-24-24 0-13.253907 10.742187-24 24-24 13.253906 0 24 10.746093 24 24zm0 0"/><path d="m136.121094 448.054688c0 13.253906-10.746094 24-24 24-13.257813 0-24-10.746094-24-24 0-13.253907 10.742187-24 24-24 13.253906 0 24 10.746093 24 24zm0 0"/></g><path d="m72.121094 72.054688h-9.136719c-4.027344-15.601563-19.03125-25.773438-35.015625-23.742188-15.988281 2.027344-27.96875 15.628906-27.96875 31.742188 0 16.113281 11.980469 29.714843 27.96875 31.746093 15.984375 2.03125 30.988281-8.144531 35.015625-23.746093h9.136719c4.417968 0 8 3.582031 8 8v64.402343h16v-64.402343c0-13.253907-10.746094-24-24-24zm-40 24c-8.835938 0-16-7.164063-16-16 0-8.835938 7.164062-16 16-16 8.835937 0 16 7.164062 16 16 0 8.835937-7.164063 16-16 16zm0 0" fill="#ff7956"/><path d="m168.121094 24.054688h-25.136719c-4.027344-15.601563-19.03125-25.773438-35.015625-23.742188-15.988281 2.027344-27.96875 15.628906-27.96875 31.742188 0 16.113281 11.980469 29.714843 27.96875 31.746093 15.984375 2.03125 30.988281-8.144531 35.015625-23.746093h25.136719c4.417968 0 8 3.582031 8 8v24.722656h16v-24.722656c0-13.253907-10.746094-24-24-24zm-56 24c-8.835938 0-16-7.164063-16-16 0-8.835938 7.164062-16 16-16 8.835937 0 16 7.164062 16 16 0 8.835937-7.164063 16-16 16zm0 0" fill="#ff7956"/><path d="m368.121094.0546875c-14.546875.0546875-27.226563 9.9140625-30.863282 24.0000005h-17.136718c-13.257813 0-24 10.746093-24 24v27.441406h16v-27.441406c0-4.417969 3.582031-8 8-8h17.136718c4.183594 16.0625 19.972657 26.242187 36.328126 23.425781 16.355468-2.816407 27.832031-17.6875 26.40625-34.222657-1.425782-16.535156-15.273438-29.226562-31.871094-29.2031245zm0 48.0000005c-8.835938 0-16-7.164063-16-16 0-8.835938 7.164062-16 16-16 8.835937 0 16 7.164062 16 16 0 8.835937-7.164063 16-16 16zm0 0" fill="#ff7956"/><path d="m448.121094 48.054688c-14.546875.054687-27.226563 9.914062-30.863282 24h-9.136718c-13.257813 0-24 10.746093-24 24v64.320312h16v-64.320312c0-4.417969 3.582031-8 8-8h9.136718c4.183594 16.0625 19.972657 26.242187 36.328126 23.425781 16.355468-2.816407 27.832031-17.6875 26.40625-34.222657-1.425782-16.535156-15.273438-29.226562-31.871094-29.203124zm0 48c-8.835938 0-16-7.164063-16-16 0-8.835938 7.164062-16 16-16 8.835937 0 16 7.164062 16 16 0 8.835937-7.164063 16-16 16zm0 0" fill="#ff7956"/><path d="m176.121094 399.335938v32.71875c0 4.417968-3.582032 8-8 8h-25.136719c-4.027344-15.601563-19.03125-25.773438-35.015625-23.742188-15.988281 2.027344-27.96875 15.628906-27.96875 31.742188 0 16.113281 11.980469 29.714843 27.96875 31.746093 15.984375 2.03125 30.988281-8.144531 35.015625-23.746093h25.136719c13.253906 0 24-10.746094 24-24v-32.71875zm-64 64.71875c-8.835938 0-16-7.164063-16-16 0-8.835938 7.164062-16 16-16 8.835937 0 16 7.164062 16 16 0 8.835937-7.164063 16-16 16zm0 0" fill="#ff7956"/><path d="m368.121094 416.054688c-14.546875.054687-27.226563 9.914062-30.863282 24h-17.136718c-4.417969 0-8-3.582032-8-8v-35.4375h-16v35.4375c0 13.253906 10.742187 24 24 24h17.136718c4.183594 16.0625 19.972657 26.242187 36.328126 23.425781 16.355468-2.816407 27.832031-17.6875 26.40625-34.222657-1.425782-16.535156-15.273438-29.226562-31.871094-29.203124zm0 48c-8.835938 0-16-7.164063-16-16 0-8.835938 7.164062-16 16-16 8.835937 0 16 7.164062 16 16 0 8.835937-7.164063 16-16 16zm0 0" fill="#ff7956"/><path d="m448.121094 368.054688c-14.546875.054687-27.226563 9.914062-30.863282 24h-9.136718c-4.417969 0-8-3.582032-8-8v-64.320313h-16v64.320313c0 13.253906 10.742187 24 24 24h9.136718c4.183594 16.0625 19.972657 26.242187 36.328126 23.425781 16.355468-2.816407 27.832031-17.6875 26.40625-34.222657-1.425782-16.535156-15.273438-29.226562-31.871094-29.203124zm0 48c-8.835938 0-16-7.164063-16-16 0-8.835938 7.164062-16 16-16 8.835937 0 16 7.164062 16 16 0 8.835937-7.164063 16-16 16zm0 0" fill="#ff7956"/><path d="m80.121094 327.65625v56.398438c0 4.417968-3.582032 8-8 8h-9.136719c-4.027344-15.601563-19.03125-25.773438-35.015625-23.742188-15.988281 2.027344-27.96875 15.628906-27.96875 31.742188 0 16.113281 11.980469 29.714843 27.96875 31.746093 15.984375 2.03125 30.988281-8.144531 35.015625-23.746093h9.136719c13.253906 0 24-10.746094 24-24v-56.398438zm-48 88.398438c-8.835938 0-16-7.164063-16-16 0-8.835938 7.164062-16 16-16 8.835937 0 16 7.164062 16 16 0 8.835937-7.164063 16-16 16zm0 0" fill="#ff7956"/><path d="m304.121094 67.472656c-79.292969-29.300781-168.351563-.871094-216 68.949219-32.695313 48-40.820313 108.613281-21.917969 163.527344 18.898437 54.914062 62.605469 97.6875 117.917969 115.394531 77.507812 24.730469 162.0625-4.328125 208-71.480469 42.742187-62.582031 42.742187-144.96875 0-207.550781-21.515625-31.492188-52.257813-55.539062-88-68.839844zm96.0625 173.382813c-.441406 88.367187-72.4375 159.644531-160.804688 159.195312-88.367187-.445312-159.640625-72.445312-159.191406-160.8125.449219-88.367187 72.453125-159.636719 160.820312-159.183593 88.355469.453124 159.617188 72.445312 159.175782 160.800781zm0 0" fill="#ffb655"/><path d="m364.039062 138.777344c-49.238281-60.1875-134.621093-76.257813-202.371093-38.089844-67.75 38.171875-98.25 119.523438-72.285157 192.824219 25.964844 73.300781 100.875 117.316406 177.542969 104.328125 76.671875-12.988282 132.902344-79.222656 133.273438-156.984375.214843-37.203125-12.574219-73.308594-36.160157-102.078125zm-123.917968-34.722656 41.917968 111.839843 6.082032 16.160157-48 48-48-48zm0 272-45.601563-97.757813-10.398437-22.242187 56 56 56-56zm0 0" fill="#ffeb99"/><path d="m400.199219 240.855469c-.351563 70.492187-46.792969 132.445312-114.355469 152.554687s-140.324219-6.367187-179.164062-65.195312c23.921874-12.238282 54.558593-28.960938 87.839843-49.917969 2.398438-1.601563 4.800781-3.121094 7.199219-4.640625 6.320312-4.082031 12.722656-8.320312 19.199219-12.800781 20.082031-13.519531 40.722656-28.480469 61.121093-44.960938 29.375-23.445312 56.800782-49.234375 82-77.117187 23.566407 28.78125 36.355469 64.878906 36.160157 102.078125zm0 0" fill="#ffe477"/><path d="m288.121094 232.054688-48-128-48 128 48-40zm0 0" fill="#3d9ae2"/><path d="m184.121094 256.054688 56 120 56-120-56 56zm0 0" fill="#3d9ae2"/><path d="m288.121094 232.054688-48-40-48 40 48 48zm0 0" fill="#78b9eb"/><path d="m240.214844 408.054688h-.894532c-92.785156-.234376-167.808593-75.644532-167.574218-168.425782.238281-92.785156 75.644531-167.808594 168.429687-167.574218h.886719c92.785156.222656 167.824219 75.617187 167.601562 168.402343-.222656 92.78125-75.617187 167.820313-168.398437 167.597657zm-.054688-320c-83.949218-.21875-152.179687 67.652343-152.398437 151.601562-.222657 83.945312 67.652343 152.179688 151.597656 152.398438h.800781c83.945313.210937 152.167969-67.671876 152.378906-151.617188.210938-83.949219-67.671874-152.171875-151.621093-152.382812zm0 0" fill="#ff7956"/></svg>